<?xml version="1.0" encoding="UTF-8"?>
<svg xmlns="http://www.w3.org/2000/svg" version="1.1" viewBox="0 0 1417.32 1417.32">
  <defs>
    <style>
      .cls-1 {
        fill: #e50b77;
      }
    </style>
  </defs>
  <!-- Generator: Adobe Illustrator 28.7.1, SVG Export Plug-In . SVG Version: 1.2.0 Build 142)  -->
  <g>
    <g id="Layer_1">
      <g>
        <path class="cls-1" d="M942.62,561.37c-66.79-7.43-127.18,40.86-134.61,107.66-1.73,15.52-.41,30.69,3.42,44.94-3.56,21.87-25.09,44.71-58.22,61.49-39.91,20.22-91.11,28.66-140.47,23.17-74.02-8.23-129.21-38.57-155.14-72.8-4.9-6.69-12.32-11.1-20.93-11.1-14.92,0-27.01,12.85-27.01,28.71,0,8.25,3.3,15.67,8.54,20.91,39.57,46.71,109.61,81.57,188.31,90.32,60.86,6.77,122-3.5,172.17-28.91,28.94-14.66,51.83-33.33,67.25-54.26,18.53,17.37,42.61,29.12,69.74,32.14,66.79,7.43,127.18-40.86,134.61-107.66,7.43-66.79-40.87-127.18-107.66-134.61ZM994.25,689.75c-3.99,35.9-36.45,61.85-72.34,57.86-35.9-3.99-61.85-36.44-57.86-72.34,3.99-35.9,36.45-61.85,72.34-57.86,35.9,3.99,61.85,36.45,57.86,72.34Z"/>
        <circle class="cls-1" cx="402.83" cy="670.62" r="36.54"/>
      </g>
    </g>
  </g>
</svg>