<?xml version="1.0" encoding="UTF-8"?>
<svg xmlns="http://www.w3.org/2000/svg" version="1.1" viewBox="0 0 1417.32 1417.32">
  <defs>
    <style>
      .cls-1 {
        fill: #e50b77;
      }
    </style>
  </defs>
  <!-- Generator: Adobe Illustrator 28.7.1, SVG Export Plug-In . SVG Version: 1.2.0 Build 142)  -->
  <g>
    <g id="Layer_1">
      <g>
        <path class="cls-1" d="M371.42,742.58c0,11.62.03,23.24,0,34.86-.03,9.13-3.69,15.59-10.9,18.13-9.09,3.2-18.22,3.09-25.61-3.73-2.46-2.27-3.74-6.85-3.89-10.43-.71-17.4-.79-34.83-1.21-52.24-.31-12.91-6.09-20.69-16.94-23.28-11.02-2.63-25.13,3.66-25.19,18.29-.06,17.42-.69,34.83-.89,52.24-.1,8.09-.87,15.73-9.59,19.37-8.51,3.55-17,3.6-24.96-1.54-4.63-2.99-6.15-7.66-6.13-13.05.04-16.07.12-32.15-.17-48.22-.09-4.77-.76-9.7-2.16-14.25-2.6-8.4-9.09-12.84-17.82-13.17-8.28-.32-18.1,5.24-20.66,12.47-1.45,4.11-2.19,8.66-2.27,13.03-.28,15.1-.12,30.21-.16,45.32-.03,10.51-4.73,17.78-13.12,20.34-11.49,3.51-24.23.2-29.36-8.04-1.23-1.97-1.56-4.76-1.57-7.17-.18-28.43-.21-56.86-.33-85.29-.02-5.03-.39-10.06-.47-15.08-.08-4.55,2.22-7.71,6.72-7.97,7.27-.43,14.65-.84,21.85-.02,7.05.8,10.38,6.88,13.34,12.64,2.99,5.81,5.65,6.28,9.57,1.15,15.58-20.35,42.85-20.46,59.54-9.81,3.94,2.52,7.02,6.53,10.15,10.16,4.47,5.17,7.11,5.51,10.79-.1,13.02-19.83,55.66-24.67,72.88-4.09,6.05,7.23,8.23,15.23,8.43,24.07.26,11.81.06,23.63.06,35.44.02,0,.05,0,.07,0Z"/>
        <path class="cls-1" d="M685.28,797.35c-1.94,0-3.87.05-5.81,0-13.37-.43-20.53-6.94-23.03-19.99-3.78-19.74-7.89-39.41-12.05-59.07-.33-1.58-2.08-2.86-3.17-4.28-1.34,1.6-3.5,3.03-3.9,4.84-4.34,19.45-8.54,38.94-12.5,58.47-2.85,14.06-9.58,19.97-23.88,20.16-4.06.05-8.15.17-12.19-.18-8.85-.77-15.62-5.03-18.45-13.62-7.62-23.13-14.86-46.39-22.24-69.6-3.04-9.57-6.08-19.15-9.04-28.75-2.67-8.65-1.04-11.41,7.98-12.48,5.34-.63,10.84-1,16.17-.48,11.6,1.13,17.52,6.94,20.06,18.44,3.95,17.94,7.95,35.88,11.93,53.81.21.94.19,2.09.73,2.78,1.09,1.38,2.51,2.5,3.79,3.73,1.03-1.29,2.69-2.44,2.99-3.88,2.19-10.4,4.18-20.85,6.09-31.31,1.46-7.99,2.55-16.06,4.08-24.03,2.41-12.48,8.55-18.16,21.22-18.97,7.28-.47,14.69-.45,21.94.33,7.79.83,12.81,6.1,14.27,13.93,3.47,18.62,6.73,37.28,10.06,55.93.2,1.14,0,2.53.6,3.39,1.23,1.79,2.87,3.31,4.34,4.94,1.1-1.61,2.88-3.1,3.19-4.85,2.56-14.47,4.85-28.98,7.2-43.49.99-6.11,1.62-12.29,2.97-18.31,1.28-5.69,5.18-9.37,10.78-11.12,10.2-3.18,20.32-.99,30.37.72,4.3.73,5.27,3.89,4.01,7.99-6.7,21.8-13.3,43.62-20,65.42-3.4,11.07-6.77,22.16-10.47,33.13-4.03,11.92-10.12,16.11-22.83,16.42-1.74.04-3.48,0-5.23,0v-.04Z"/>
        <path class="cls-1" d="M1116.52,706.27c0-25.18.16-50.35-.11-75.53-.06-6,2.16-9.35,7.89-9.95,5.93-.62,12-1.39,17.87-.8,9.9.99,15.5,5.79,16.76,15.45,1.39,10.69,1.19,21.58,1.61,32.39.16,4.26-.12,8.54.29,12.77.18,1.9,1.13,4.55,2.54,5.25,1.19.6,3.97-.64,5.31-1.87,15.16-13.9,32.79-16.88,51.89-11.12,16.03,4.83,27.41,16.21,32.92,31.4,9.21,25.39,8.23,50.69-8.13,73.52-16.94,23.64-46.61,26.26-66.65,14.26-3.77-2.25-7.05-5.39-10.31-8.38-3.25-2.97-5.81-3.45-8.39.76-6.75,10.98-16.69,14.89-29.24,12.94-8.85-1.37-14.11-7.12-14.14-16.15-.08-24.98-.03-49.96-.03-74.95-.03,0-.06,0-.08,0ZM1161.58,733.67c-1.33,16.64,11.79,31.06,26.91,30.4,16.69-.72,27.98-11.64,28.08-28.81.1-18.79-11.08-30.94-28.56-31.04-17.29-.1-26.37,10.02-26.42,29.45Z"/>
        <path class="cls-1" d="M903.08,704.53c0-25.17.09-50.34-.09-75.51-.03-4.29,1.77-6.6,5.49-7.7,9.37-2.78,18.75-3.16,27.75,1.26,5.79,2.84,9.26,7.66,9.45,14.26.41,13.93.62,27.86.93,41.79.03,1.55-.09,3.13.19,4.64.83,4.52,4,5.64,7.47,2.66,1.46-1.26,2.7-2.77,4.07-4.15,15.45-15.62,46.58-16.33,62.72-1.4,7.68,7.1,11.46,16.25,11.61,26.4.35,24.2.12,48.41-.01,72.61-.04,6.47-3.11,11.35-8.79,14.67-6.97,4.08-14.52,4.31-21.97,2.74-8.73-1.84-13.08-8.61-13.05-18.16.06-15.64.05-31.28-.01-46.92-.01-2.89-.19-5.82-.72-8.66-2.2-11.75-10.66-18.34-22.17-17.48-10.83.81-19.15,9.53-19.39,20.93-.28,13.34-.14,26.69-.18,40.04-.01,3.29.14,6.59-.06,9.87-.53,8.56-2.67,16.1-12.12,19.11-9.82,3.12-19.49,3.58-26.8-4.68-2.84-3.21-4.29-8.67-4.36-13.14-.41-24.39-.2-48.79-.2-73.19.08,0,.17,0,.26,0Z"/>
        <path class="cls-1" d="M887.61,738.7c0,15.48-.09,30.96.06,46.44.05,5.06-1.91,8.08-6.44,10.52-10.89,5.87-31.03,2.39-34.82-12.17-1.05-4.05-4.01-4.14-7.15-1.45-4.39,3.77-8.56,7.96-13.43,10.99-17.4,10.79-48.36,5.76-62.76-11.92-18.32-22.51-21-47.57-12.93-73.23,12-38.1,50.89-43.82,77.03-32.3,4.63,2.04,8.54,5.93,12.41,9.39,5.14,4.61,6.32,4.68,10.13-1.26,4.38-6.83,10.26-10.77,18.64-10.75,12.47.04,18.91,5.68,19.17,18.11.33,15.87.08,31.76.09,47.64ZM844.45,734.1c.09-16.6-12.03-29.83-27.38-29.88-16.95-.06-29.14,12.65-29.4,30.64-.23,15.91,12.62,30.15,27.4,30.37,16.99.25,29.28-12.77,29.37-31.12Z"/>
        <path class="cls-1" d="M527.39,738.12c0,15.88.03,31.76-.02,47.64-.02,7.01-2.45,10.43-9.4,11.77-12.99,2.5-24.79,1.61-30.93-13.14-1.97-4.74-5.05-3.59-8.31-.97-4.8,3.86-9.33,8.43-14.76,11.06-16.18,7.83-32.48,5.49-47-3.77-21.78-13.89-29.64-35.14-28.46-60.38.68-14.48,4.52-27.72,13.14-39.54,17.64-24.21,57.44-27.69,78.84-6.78,5.47,5.34,6.78,5.18,10.79-1.34,7.88-12.81,27.22-13.18,34.19-.48,1.31,2.39,1.75,5.51,1.78,8.31.16,15.88.08,31.76.08,47.64h.06ZM484.31,734.53c.18-18.51-10.09-30.09-26.84-30.26-16.44-.16-28.72,12.56-28.96,29.84-.19,13.31,11.28,30.35,28.4,29.94,17.3-.42,27.21-10.54,27.4-29.53Z"/>
        <path class="cls-1" d="M1099.16,733.53c0,14.31,0,28.61,0,42.92,0,10.49-3.31,16.43-10.81,19.24-10.42,3.92-22.98,2.16-28.47-4.88-2.18-2.8-3.45-7.06-3.46-10.66-.1-21.45.4-42.9.47-64.35.03-10.04-.6-20.08-.66-30.12-.08-12.76,2.97-15.81,15.63-16.09,2.89-.06,5.82.01,8.68.39,13.3,1.74,18.59,7.85,18.58,21.21,0,14.11,0,28.23,0,42.34,0,0,.02,0,.03,0Z"/>
        <path class="cls-1" d="M1077.91,618.21c12.68-1.09,24.34,8.34,23.72,22.31-.59,13.12-9.67,22.65-22.6,22.79-18.43.19-24.69-11.11-24.99-22.67-.35-13.54,9.38-22.47,23.87-22.43Z"/>
      </g>
    </g>
  </g>
</svg>